<svg width="107" height="16" viewBox="0 0 107 16" fill="none" xmlns="http://www.w3.org/2000/svg">
<g id="Group 81">
<path id="Vector" d="M9.03524 3.89771H3.49124V6.72191H8.93044V9.94359H3.49124V15.32H0.144043V0.676025H9.03524V3.89771ZM14.046 6.72191C14.4644 5.32027 15.866 4.65083 17.184 4.65083V8.20723C15.8868 7.99802 14.046 8.52103 14.046 10.5921V15.32H10.908V4.86003H14.046V6.72191ZM25.9384 4.86003H29.0764V15.32H25.9384V14.3368C25.248 15.1317 24.2228 15.6129 22.8212 15.6129C20.0808 15.6129 17.8216 13.2071 17.8216 10.09C17.8216 6.97295 20.0808 4.56715 22.8212 4.56715C24.2228 4.56715 25.248 5.04831 25.9384 5.84327V4.86003ZM23.4488 12.6423C24.8924 12.6423 25.9384 11.659 25.9384 10.09C25.9384 8.52103 24.8924 7.53779 23.4488 7.53779C22.0056 7.53779 20.9596 8.52103 20.9596 10.09C20.9596 11.659 22.0056 12.6423 23.4488 12.6423ZM43.0936 4.56715C45.4996 4.56715 47.0684 6.28259 47.0684 8.89758V15.32H43.9304V9.16955C43.9304 8.12355 43.4284 7.4541 42.4244 7.4541C41.3784 7.4541 40.7924 8.18631 40.7924 9.42059V15.32H37.6544V9.16955C37.6544 8.12355 37.1524 7.4541 36.1484 7.4541C35.1024 7.4541 34.5164 8.18631 34.5164 9.42059V15.32H31.3784V4.86003H34.5164V5.82234C34.9976 5.11106 35.918 4.56715 37.32 4.56715C38.554 4.56715 39.4744 5.06922 40.0604 5.94787C40.646 5.11106 41.6084 4.56715 43.0936 4.56715ZM52.0168 11.3452C52.4144 12.4331 53.3768 12.8096 54.5272 12.8096C55.3852 12.8096 56.1172 12.4749 56.5356 12.0147L59.046 13.4581C58.0208 14.8807 56.4728 15.6129 54.4856 15.6129C50.908 15.6129 48.6908 13.2071 48.6908 10.09C48.6908 6.97295 50.95 4.56715 54.2552 4.56715C57.3096 4.56715 59.5692 6.93111 59.5692 10.09C59.5692 10.5293 59.5272 10.9477 59.4436 11.3452H52.0168ZM51.954 9.00218H56.452C56.1172 7.78883 55.176 7.34951 54.2344 7.34951C53.042 7.34951 52.2472 7.93527 51.954 9.00218ZM72.4464 4.86003H75.7936L72.4464 15.32H69.5176L67.844 9.73439L66.1704 15.32H63.2416L59.8944 4.86003H63.2416L64.7476 10.4666L66.3796 4.86003H69.3084L70.94 10.4666L72.4464 4.86003ZM81.6512 15.6129C78.576 15.6129 76.1072 13.2071 76.1072 10.09C76.1072 6.97295 78.576 4.56715 81.6512 4.56715C84.7264 4.56715 87.1948 6.97295 87.1948 10.09C87.1948 13.2071 84.7264 15.6129 81.6512 15.6129ZM81.6512 12.5586C83.0108 12.5586 84.0568 11.5753 84.0568 10.09C84.0568 8.60471 83.0108 7.62147 81.6512 7.62147C80.2912 7.62147 79.2452 8.60471 79.2452 10.09C79.2452 11.5753 80.2912 12.5586 81.6512 12.5586ZM92.108 6.72191C92.5264 5.32027 93.928 4.65083 95.246 4.65083V8.20723C93.9488 7.99802 92.108 8.52103 92.108 10.5921V15.32H88.97V4.86003H92.108V6.72191ZM106.754 15.32H103.198L99.8508 10.6967V15.32H96.7128V0.676025H99.8508V9.4415L102.989 4.86003H106.65L102.842 10.09L106.754 15.32Z" fill="white"/>
</g>
</svg>
